<?xml version="1.0" encoding="UTF-8"?>
<!DOCTYPE svg PUBLIC "-//W3C//DTD SVG 1.1//EN" "http://www.w3.org/Graphics/SVG/1.1/DTD/svg11.dtd">
<svg xmlns="http://www.w3.org/2000/svg" version="1.1" width="4500px" height="4500px" style="shape-rendering:geometricPrecision; text-rendering:geometricPrecision; image-rendering:optimizeQuality; fill-rule:evenodd; clip-rule:evenodd" xmlns:xlink="http://www.w3.org/1999/xlink">
<g><path style="opacity:0.997" fill="#040707" d="M 1702.5,873.5 C 1795.62,869.49 1878.96,895.657 1952.5,952C 2154.22,1106.05 2356.22,1259.72 2558.5,1413C 2685.84,1498.84 2824.18,1522.84 2973.5,1485C 2987.29,1481.07 3000.96,1476.74 3014.5,1472C 3268.39,1379.2 3522.39,1286.7 3776.5,1194.5C 3779.77,1195.93 3782.94,1197.59 3786,1199.5C 3807.85,1321.96 3781.52,1432.62 3707,1531.5C 3657.25,1593.14 3594.75,1636.64 3519.5,1662C 3290.9,1742.53 3062.23,1822.87 2833.5,1903C 2750.35,1926.54 2669.02,1921.54 2589.5,1888C 2568.2,1878.33 2548.2,1866.66 2529.5,1853C 2164.33,1575.17 1799.17,1297.33 1434,1019.5C 1433.58,1017.21 1434.25,1015.21 1436,1013.5C 1504.71,929.056 1593.54,882.389 1702.5,873.5 Z"/></g>
<g><path style="opacity:0.996" fill="#040707" d="M 3367.5,876.5 C 3515.8,873.074 3633.97,930.407 3722,1048.5C 3730,1060.5 3737.5,1072.83 3744.5,1085.5C 3481.8,1182.01 3218.8,1277.85 2955.5,1373C 2834.37,1407.31 2722.04,1388.98 2618.5,1318C 2557.99,1272.24 2497.65,1226.24 2437.5,1180C 2477.62,1176.89 2516.62,1168.55 2554.5,1155C 2793.35,1067.61 3032.35,980.606 3271.5,894C 3302.99,884.587 3334.99,878.753 3367.5,876.5 Z"/></g>
<g><path style="opacity:0.997" fill="#040707" d="M 1086.5,1011.5 C 1186.13,1007.33 1275.46,1035.16 1354.5,1095C 1547.09,1258.92 1739.09,1423.58 1930.5,1589C 2009,1667.89 2043.83,1763.06 2035,1874.5C 1977.24,2330.23 1919.08,2785.9 1860.5,3241.5C 1739.01,3223.06 1647.51,3161.06 1586,3055.5C 1549.57,2988.67 1534.9,2917.34 1542,2841.5C 1573.25,2595.16 1604.58,2348.82 1636,2102.5C 1656.81,1947.31 1616.14,1810.97 1514,1693.5C 1502.5,1680.67 1490.33,1668.5 1477.5,1657C 1265.98,1479.31 1054.31,1301.81 842.5,1124.5C 841.339,1120.2 841.172,1115.87 842,1111.5C 912.386,1051.52 993.886,1018.19 1086.5,1011.5 Z"/></g>
<g><path style="opacity:0.996" fill="#040707" d="M 762.5,1205.5 C 763.552,1205.35 764.552,1205.52 765.5,1206C 977.5,1384 1189.5,1562 1401.5,1740C 1495.81,1828.2 1537.64,1937.04 1527,2066.5C 1517.82,2141.25 1508.16,2215.92 1498,2290.5C 1477.8,2260.63 1454.3,2233.46 1427.5,2209C 1232.83,2046 1038.17,1883 843.5,1720C 746.117,1631.34 700.284,1520.84 706,1388.5C 710.674,1322.99 729.508,1261.99 762.5,1205.5 Z"/></g>
<g><path style="opacity:0.997" fill="#040707" d="M 3568.5,1759.5 C 3571.48,1759.24 3573.31,1760.57 3574,1763.5C 3617.57,1879.74 3607.57,1991.08 3544,2097.5C 3504.06,2159.44 3450.56,2205.61 3383.5,2236C 3151.25,2333.53 2918.91,2430.86 2686.5,2528C 2550.27,2587.62 2457.1,2687.46 2407,2827.5C 2402.06,2842.66 2397.72,2857.99 2394,2873.5C 2344.79,3148.93 2295.96,3424.43 2247.5,3700C 2244.88,3702.65 2241.88,3704.81 2238.5,3706.5C 2125.58,3666.42 2044.42,3591.75 1995,3482.5C 1963.05,3405.97 1955.05,3326.97 1971,3245.5C 2015.41,3007.45 2060.08,2769.45 2105,2531.5C 2127.91,2438.07 2179.41,2365.24 2259.5,2313C 2271.85,2305.82 2284.52,2299.16 2297.5,2293C 2721.49,2115.67 3145.15,1937.83 3568.5,1759.5 Z"/></g>
<g><path style="opacity:0.996" fill="#040707" d="M 2927.5,2548.5 C 2928.5,2548.47 2929.16,2548.97 2929.5,2550C 2915.3,2578.94 2904.46,2609.11 2897,2640.5C 2852.28,2891.76 2807.95,3143.1 2764,3394.5C 2738.16,3522.61 2668.32,3618.11 2554.5,3681C 2492.76,3713.02 2427.09,3728.52 2357.5,3727.5C 2404.8,3457.48 2452.3,3187.48 2500,2917.5C 2526.47,2788.06 2598.97,2694.56 2717.5,2637C 2787.7,2607.72 2857.7,2578.22 2927.5,2548.5 Z"/></g>
</svg>

